{
  "accessors": [
    {
      "bufferView": 1,
      "componentType": 5126,
      "count": 65532,
      "max": [
        1.6260899305343628,
        0.74687212705612183,
        2.0661849975585938
      ],
      "min": [
        -1.8636614084243774,
        -13.662937164306641,
        -1.3524272441864014
      ],
      "type": "VEC3"
    },
    {
      "bufferView": 1,
      "byteOffset": 786384,
      "componentType": 5126,
      "count": 65532,
      "max": [
        0.99982333183288574,
        0.99995625019073486,
        0.99999481439590454
      ],
      "min": [
        -0.9999701976776123,
        -0.99995601177215576,
        -0.99997884035110474
      ],
      "type": "VEC3"
    },
    {
      "bufferView": 2,
      "componentType": 5126,
      "count": 65532,
      "max": [
        0.99215686321258545,
        0.99215686321258545,
        0.99215686321258545,
        1
      ],
      "min": [
        0.21960784494876862,
        0.16470588743686676,
        0.14509804546833038,
        1
      ],
      "type": "VEC4"
    },
    {
      "bufferView": 0,
      "componentType": 5125,
      "count": 300279,
      "max": [
        65531
      ],
      "min": [
        0
      ],
      "type": "SCALAR"
    },
    {
      "bufferView": 1,
      "byteOffset": 1572768,
      "componentType": 5126,
      "count": 65532,
      "max": [
        1.6231112480163574,
        0.73437261581420898,
        1.318851113319397
      ],
      "min": [
        -1.8656998872756958,
        -13.683000564575195,
        -1.3182435035705566
      ],
      "type": "VEC3"
    },
    {
      "bufferView": 1,
      "byteOffset": 2359152,
      "componentType": 5126,
      "count": 65532,
      "max": [
        0.99998986721038818,
        0.9999813437461853,
        0.99998360872268677
      ],
      "min": [
        -0.99999958276748657,
        -0.99996072053909302,
        -0.99999803304672241
      ],
      "type": "VEC3"
    },
    {
      "bufferView": 2,
      "byteOffset": 1048512,
      "componentType": 5126,
      "count": 65532,
      "max": [
        0.99215686321258545,
        0.99215686321258545,
        0.99215686321258545,
        1
      ],
      "min": [
        0.18823529779911041,
        0.16862745583057404,
        0.15294118225574493,
        1
      ],
      "type": "VEC4"
    },
    {
      "bufferView": 0,
      "byteOffset": 1201116,
      "componentType": 5125,
      "count": 306729,
      "max": [
        65531
      ],
      "min": [
        0
      ],
      "type": "SCALAR"
    },
    {
      "bufferView": 1,
      "byteOffset": 3145536,
      "componentType": 5126,
      "count": 65532,
      "max": [
        1.6662051677703857,
        0.81566154956817627,
        1.9026129245758057
      ],
      "min": [
        -1.8640912771224976,
        -13.695893287658691,
        -1.3495011329650879
      ],
      "type": "VEC3"
    },
    {
      "bufferView": 1,
      "byteOffset": 3931920,
      "componentType": 5126,
      "count": 65532,
      "max": [
        0.99998509883880615,
        0.99999833106994629,
        0.99999010562896729
      ],
      "min": [
        -0.99999982118606567,
        -0.99999511241912842,
        -0.99999535083770752
      ],
      "type": "VEC3"
    },
    {
      "bufferView": 2,
      "byteOffset": 2097024,
      "componentType": 5126,
      "count": 65532,
      "max": [
        0.99215686321258545,
        0.99215686321258545,
        0.99215686321258545,
        1
      ],
      "min": [
        0.12549020349979401,
        0.15686275064945221,
        0.14117647707462311,
        1
      ],
      "type": "VEC4"
    },
    {
      "bufferView": 0,
      "byteOffset": 2428032,
      "componentType": 5125,
      "count": 318057,
      "max": [
        65531
      ],
      "min": [
        0
      ],
      "type": "SCALAR"
    },
    {
      "bufferView": 1,
      "byteOffset": 4718304,
      "componentType": 5126,
      "count": 65532,
      "max": [
        1.6866081953048706,
        0.72286158800125122,
        1.9993246793746948
      ],
      "min": [
        -1.845700740814209,
        -13.689898490905762,
        -1.3057507276535034
      ],
      "type": "VEC3"
    },
    {
      "bufferView": 1,
      "byteOffset": 5504688,
      "componentType": 5126,
      "count": 65532,
      "max": [
        0.99999511241912842,
        0.99990850687026978,
        0.99999880790710449
      ],
      "min": [
        -1,
        -0.9998595118522644,
        -0.99998217821121216
      ],
      "type": "VEC3"
    },
    {
      "bufferView": 2,
      "byteOffset": 3145536,
      "componentType": 5126,
      "count": 65532,
      "max": [
        0.99215686321258545,
        0.99215686321258545,
        0.99215686321258545,
        1
      ],
      "min": [
        0.12549020349979401,
        0.16078431904315948,
        0.14509804546833038,
        1
      ],
      "type": "VEC4"
    },
    {
      "bufferView": 0,
      "byteOffset": 3700260,
      "componentType": 5125,
      "count": 318063,
      "max": [
        65531
      ],
      "min": [
        0
      ],
      "type": "SCALAR"
    },
    {
      "bufferView": 1,
      "byteOffset": 6291072,
      "componentType": 5126,
      "count": 65532,
      "max": [
        1.6864699125289917,
        0.78695642948150635,
        2.0642180442810059
      ],
      "min": [
        -1.8656908273696899,
        -13.67859935760498,
        -1.3524272441864014
      ],
      "type": "VEC3"
    },
    {
      "bufferView": 1,
      "byteOffset": 7077456,
      "componentType": 5126,
      "count": 65532,
      "max": [
        0.99998986721038818,
        0.99999916553497314,
        0.99998360872268677
      ],
      "min": [
        -1,
        -0.99994558095932007,
        -0.99999052286148071
      ],
      "type": "VEC3"
    },
    {
      "bufferView": 2,
      "byteOffset": 4194048,
      "componentType": 5126,
      "count": 65532,
      "max": [
        0.99607843160629272,
        0.99607843160629272,
        0.99607843160629272,
        1
      ],
      "min": [
        0.12549020349979401,
        0.15686275064945221,
        0.14117647707462311,
        1
      ],
      "type": "VEC4"
    },
    {
      "bufferView": 0,
      "byteOffset": 4972512,
      "componentType": 5125,
      "count": 268899,
      "max": [
        65531
      ],
      "min": [
        0
      ],
      "type": "SCALAR"
    },
    {
      "bufferView": 1,
      "byteOffset": 7863840,
      "componentType": 5126,
      "count": 41649,
      "max": [
        1.6794894933700562,
        0.81091421842575073,
        2.0643332004547119
      ],
      "min": [
        -1.8602583408355713,
        -13.695893287658691,
        -1.3473712205886841
      ],
      "type": "VEC3"
    },
    {
      "bufferView": 1,
      "byteOffset": 8363628,
      "componentType": 5126,
      "count": 41649,
      "max": [
        0.99998432397842407,
        0.99994349479675293,
        0.99999010562896729
      ],
      "min": [
        -0.99999982118606567,
        -0.99999511241912842,
        -0.99999535083770752
      ],
      "type": "VEC3"
    },
    {
      "bufferView": 2,
      "byteOffset": 5242560,
      "componentType": 5126,
      "count": 41649,
      "max": [
        0.99215686321258545,
        0.99215686321258545,
        0.99215686321258545,
        1
      ],
      "min": [
        0.12941177189350128,
        0.16078431904315948,
        0.14509804546833038,
        1
      ],
      "type": "VEC4"
    },
    {
      "bufferView": 0,
      "byteOffset": 6048108,
      "componentType": 5125,
      "count": 76593,
      "max": [
        41648
      ],
      "min": [
        0
      ],
      "type": "SCALAR"
    }
  ],
  "asset": {
    "extras": {
      "author": "melissa.mcclain (https://sketchfab.com/melissa.mcclain)",
      "license": "CC-BY-4.0 (http://creativecommons.org/licenses/by/4.0/)",
      "source": "https://sketchfab.com/3d-models/girl-speedsculpt-e53485026a16424fb5c4a9fcad50a5b2",
      "title": "Girl Speedsculpt"
    },
    "generator": "Sketchfab-6.79.0",
    "version": "2.0"
  },
  "bufferViews": [
    {
      "buffer": 0,
      "byteLength": 6354480,
      "byteOffset": 0,
      "name": "floatBufferViews",
      "target": 34963
    },
    {
      "buffer": 0,
      "byteLength": 8863416,
      "byteOffset": 6354480,
      "byteStride": 12,
      "name": "floatBufferViews",
      "target": 34962
    },
    {
      "buffer": 0,
      "byteLength": 5908944,
      "byteOffset": 15217896,
      "byteStride": 16,
      "name": "floatBufferViews",
      "target": 34962
    }
  ],
  "buffers": [
    {
      "byteLength": 21126840,
      "uri": "scene.bin"
    }
  ],
  "materials": [
    {
      "doubleSided": true,
      "emissiveFactor": [
        0,
        0,
        0
      ],
      "name": "material0",
      "pbrMetallicRoughness": {
        "baseColorFactor": [
          0.52474055425920918,
          0.52243005804053133,
          0.53292086172828168,
          1
        ],
        "metallicFactor": 0,
        "roughnessFactor": 1
      }
    }
  ],
  "meshes": [
    {
      "primitives": [
        {
          "attributes": {
            "COLOR_0": 2,
            "NORMAL": 1,
            "POSITION": 0
          },
          "indices": 3,
          "material": 0,
          "mode": 4
        }
      ]
    },
    {
      "primitives": [
        {
          "attributes": {
            "COLOR_0": 6,
            "NORMAL": 5,
            "POSITION": 4
          },
          "indices": 7,
          "material": 0,
          "mode": 4
        }
      ]
    },
    {
      "primitives": [
        {
          "attributes": {
            "COLOR_0": 10,
            "NORMAL": 9,
            "POSITION": 8
          },
          "indices": 11,
          "material": 0,
          "mode": 4
        }
      ]
    },
    {
      "primitives": [
        {
          "attributes": {
            "COLOR_0": 14,
            "NORMAL": 13,
            "POSITION": 12
          },
          "indices": 15,
          "material": 0,
          "mode": 4
        }
      ]
    },
    {
      "primitives": [
        {
          "attributes": {
            "COLOR_0": 18,
            "NORMAL": 17,
            "POSITION": 16
          },
          "indices": 19,
          "material": 0,
          "mode": 4
        }
      ]
    },
    {
      "primitives": [
        {
          "attributes": {
            "COLOR_0": 22,
            "NORMAL": 21,
            "POSITION": 20
          },
          "indices": 23,
          "material": 0,
          "mode": 4
        }
      ]
    }
  ],
  "nodes": [
    {
      "children": [
        1
      ],
      "name": "RootNode (gltf orientation matrix)",
      "rotation": [
        -0.70710678118654746,
        -0,
        -0,
        0.70710678118654757
      ]
    },
    {
      "children": [
        2
      ],
      "matrix": [
        0.99999994039535522,
        4.938482662156349e-16,
        0.00038447350380010903,
        0,
        -4.9391009962078446e-16,
        1,
        1.6066691673598e-16,
        0,
        -0.00038447350380010903,
        -1.6085679769995277e-16,
        0.99999994039535522,
        0,
        -0.0024760491214692593,
        -2.3869795029440866e-15,
        -2.7453792426967993e-05,
        1
      ],
      "name": "RootNode (model correction matrix)"
    },
    {
      "children": [
        3
      ],
      "name": "root"
    },
    {
      "children": [
        4
      ],
      "matrix": [
        1,
        0,
        0,
        0,
        0,
        2.2204460492503131e-16,
        1,
        0,
        0,
        -1,
        2.2204460492503131e-16,
        0,
        0,
        0,
        0,
        1
      ],
      "name": "GLTF_SceneRootNode"
    },
    {
      "children": [
        5
      ],
      "matrix": [
        1,
        0,
        -0,
        0,
        -0,
        0,
        -1,
        0,
        0,
        1,
        0,
        0,
        0,
        0,
        0,
        1
      ],
      "name": "RootNode (gltf orientation matrix)_0"
    },
    {
      "children": [
        6
      ],
      "matrix": [
        -1,
        0,
        0,
        0,
        0,
        -1,
        0,
        0,
        0,
        0,
        1,
        0,
        -0.019376873970031738,
        -0.56799304485321045,
        0,
        1
      ],
      "name": "RootNode (model correction matrix)_1"
    },
    {
      "children": [
        7
      ],
      "matrix": [
        1,
        0,
        0,
        0,
        0,
        0,
        1,
        0,
        0,
        -1,
        0,
        0,
        0,
        0,
        0,
        1
      ],
      "name": "123e8ee908d3496daa7045ceadb9e181.fbx_2"
    },
    {
      "children": [
        8
      ],
      "name": "RootNode_3"
    },
    {
      "children": [
        9,
        11,
        13,
        15,
        17,
        19
      ],
      "name": "Merged_Extract6_4"
    },
    {
      "children": [
        10
      ],
      "name": "Merged_Extract6_material0_0_5"
    },
    {
      "mesh": 0,
      "name": ""
    },
    {
      "children": [
        12
      ],
      "name": "Merged_Extract6_material0_0_6"
    },
    {
      "mesh": 1,
      "name": ""
    },
    {
      "children": [
        14
      ],
      "name": "Merged_Extract6_material0_0_7"
    },
    {
      "mesh": 2,
      "name": ""
    },
    {
      "children": [
        16
      ],
      "name": "Merged_Extract6_material0_0_8"
    },
    {
      "mesh": 3,
      "name": ""
    },
    {
      "children": [
        18
      ],
      "name": "Merged_Extract6_material0_0_9"
    },
    {
      "mesh": 4,
      "name": ""
    },
    {
      "children": [
        20
      ],
      "name": "Merged_Extract6_material0_0_10"
    },
    {
      "mesh": 5,
      "name": ""
    }
  ],
  "scene": 0,
  "scenes": [
    {
      "name": "OSG_Scene",
      "nodes": [
        0
      ]
    }
  ]
}

